<svg width="350" height="263" viewBox="0 0 350 263" fill="none" xmlns="http://www.w3.org/2000/svg">
<path fill-rule="evenodd" clip-rule="evenodd" d="M168.295 218.04C168.295 216.295 166.88 214.88 165.134 214.88H127.271C125.526 214.88 124.111 216.295 124.111 218.04C124.111 219.786 125.526 221.201 127.271 221.201H165.134C166.88 221.201 168.295 219.786 168.295 218.04Z" fill="#98EED5"/>
<path fill-rule="evenodd" clip-rule="evenodd" d="M168.295 236.502C168.295 234.757 166.88 233.342 165.134 233.342H63.914C62.1684 233.342 60.7535 234.757 60.7535 236.502C60.7535 238.248 62.1684 239.663 63.914 239.663H165.134C166.88 239.663 168.295 238.248 168.295 236.502Z" fill="#85D0CC"/>
<path fill-rule="evenodd" clip-rule="evenodd" d="M168.295 254.965C168.295 253.219 166.88 251.804 165.134 251.804H63.914C62.1684 251.804 60.7535 253.219 60.7535 254.965C60.7535 256.71 62.1684 258.125 63.914 258.125H165.134C166.88 258.125 168.295 256.71 168.295 254.965Z" fill="#85D0CC"/>
<path fill-rule="evenodd" clip-rule="evenodd" d="M168.295 162.655C168.295 160.909 166.88 159.495 165.134 159.495H127.271C125.526 159.495 124.111 160.909 124.111 162.655C124.111 164.4 125.526 165.815 127.271 165.815H165.134C166.88 165.815 168.295 164.4 168.295 162.655Z" fill="#98EED5"/>
<path fill-rule="evenodd" clip-rule="evenodd" d="M168.295 125.73C168.295 123.985 166.88 122.57 165.134 122.57H127.271C125.526 122.57 124.111 123.985 124.111 125.73C124.111 127.476 125.526 128.891 127.271 128.891H165.134C166.88 128.891 168.295 127.476 168.295 125.73Z" fill="#C3E5DB"/>
<path fill-rule="evenodd" clip-rule="evenodd" d="M168.295 181.116C168.295 179.371 166.88 177.956 165.134 177.956H63.914C62.1684 177.956 60.7535 179.371 60.7535 181.116C60.7535 182.862 62.1684 184.277 63.914 184.277H165.134C166.88 184.277 168.295 182.862 168.295 181.116Z" fill="#85D0CC"/>
<path fill-rule="evenodd" clip-rule="evenodd" d="M168.295 199.578C168.295 197.833 166.88 196.418 165.134 196.418H63.914C62.1684 196.418 60.7535 197.833 60.7535 199.578C60.7535 201.324 62.1684 202.739 63.914 202.739H165.134C166.88 202.739 168.295 201.324 168.295 199.578Z" fill="#85D0CC"/>
<path fill-rule="evenodd" clip-rule="evenodd" d="M181.704 218.04C181.704 216.295 183.119 214.88 184.865 214.88H222.728C224.473 214.88 225.888 216.295 225.888 218.04C225.888 219.786 224.473 221.201 222.728 221.201H184.865C183.119 221.201 181.704 219.786 181.704 218.04Z" fill="#98EED5"/>
<path fill-rule="evenodd" clip-rule="evenodd" d="M181.704 236.502C181.704 234.757 183.119 233.342 184.865 233.342H286.085C287.831 233.342 289.246 234.757 289.246 236.502C289.246 238.248 287.831 239.663 286.085 239.663H184.865C183.119 239.663 181.704 238.248 181.704 236.502Z" fill="#85D0CC"/>
<path fill-rule="evenodd" clip-rule="evenodd" d="M181.704 254.965C181.704 253.219 183.119 251.804 184.865 251.804H286.085C287.831 251.804 289.246 253.219 289.246 254.965C289.246 256.71 287.831 258.125 286.085 258.125H184.865C183.119 258.125 181.704 256.71 181.704 254.965Z" fill="#85D0CC"/>
<path fill-rule="evenodd" clip-rule="evenodd" d="M181.704 162.655C181.704 160.909 183.119 159.495 184.865 159.495H222.728C224.473 159.495 225.888 160.909 225.888 162.655C225.888 164.4 224.473 165.815 222.728 165.815H184.865C183.119 165.815 181.704 164.4 181.704 162.655Z" fill="#98EED5"/>
<path fill-rule="evenodd" clip-rule="evenodd" d="M181.704 125.73C181.704 123.985 183.119 122.57 184.865 122.57H222.728C224.473 122.57 225.888 123.985 225.888 125.73C225.888 127.476 224.473 128.891 222.728 128.891H184.865C183.119 128.891 181.704 127.476 181.704 125.73Z" fill="#C3E5DB"/>
<path fill-rule="evenodd" clip-rule="evenodd" d="M181.704 181.116C181.704 179.371 183.119 177.956 184.865 177.956H286.085C287.831 177.956 289.246 179.371 289.246 181.116C289.246 182.862 287.831 184.277 286.085 184.277H184.865C183.119 184.277 181.704 182.862 181.704 181.116Z" fill="#85D0CC"/>
<path fill-rule="evenodd" clip-rule="evenodd" d="M181.704 199.578C181.704 197.833 183.119 196.418 184.865 196.418H286.085C287.831 196.418 289.246 197.833 289.246 199.578C289.246 201.324 287.831 202.739 286.085 202.739H184.865C183.119 202.739 181.704 201.324 181.704 199.578Z" fill="#85D0CC"/>
<path fill-rule="evenodd" clip-rule="evenodd" d="M169.592 17.3785C151.85 17.3785 137.787 31.7918 137.787 49.1833C137.787 66.9253 152.201 80.9878 169.592 80.9878C184.734 80.9878 197.676 70.2791 200.636 55.4785C201.223 52.5438 204.078 50.6402 207.013 51.2273C209.948 51.8145 211.851 54.6692 211.264 57.6043C207.299 77.4305 189.942 91.8265 169.592 91.8265C146.296 91.8265 126.948 72.9934 126.948 49.1833C126.948 25.888 145.782 6.53986 169.592 6.53986C173.907 6.53986 178.061 7.02084 182.315 8.61632C185.118 9.66724 186.538 12.791 185.487 15.5934C184.436 18.3959 181.312 19.8158 178.51 18.7649C175.839 17.7634 173.068 17.3785 169.592 17.3785Z" fill="#98EED5"/>
<path fill-rule="evenodd" clip-rule="evenodd" d="M221.196 5.71134C223.451 7.67935 223.684 11.1028 221.716 13.3578L180.164 60.97C179.2 62.0734 177.831 62.7401 176.368 62.818C174.906 62.8959 173.474 62.3783 172.399 61.383L160.712 50.5619C158.516 48.5284 158.384 45.0997 160.418 42.9036C162.451 40.7075 165.88 40.5756 168.076 42.609L170.908 45.2314C173.514 47.6438 177.597 47.4268 179.932 44.7514L213.55 6.23101C215.518 3.97601 218.942 3.74334 221.196 5.71134Z" fill="#98EED5"/>
</svg>
