<svg width="350" height="263" viewBox="0 0 350 263" fill="none" xmlns="http://www.w3.org/2000/svg">
<path d="M174.948 258.125C245.048 258.125 301.875 201.298 301.875 131.198C301.875 61.0982 245.048 4.375 174.948 4.375C104.848 4.375 48.125 61.2019 48.125 131.198C48.125 201.194 104.848 258.125 174.948 258.125Z" fill="#98EED5"/>
<path d="M150.688 109.317C150.688 117.716 139.177 103.717 124.867 103.717C110.556 103.717 99.0461 117.716 99.0461 109.317C99.0461 100.917 110.66 85.3629 124.867 85.3629C139.177 85.3629 150.688 100.917 150.688 109.317Z" fill="#85D0CC"/>
<path d="M250.819 109.317C250.819 117.716 239.204 103.821 224.998 103.821C210.687 103.821 199.177 117.82 199.177 109.317C199.177 100.917 210.791 85.3629 224.998 85.3629C239.204 85.3629 250.819 100.917 250.819 109.317Z" fill="#85D0CC"/>
<path d="M248.055 142.503C248.055 142.503 243.285 216.233 174.948 216.233C106.61 216.233 101.84 142.503 101.84 142.503H248.055Z" fill="#F4F4F4"/>
<path fill-rule="evenodd" clip-rule="evenodd" d="M101.84 142.503C101.84 142.503 102.047 146.444 103.292 152.458H103.322C107.421 172.588 122.37 216.233 174.947 216.233C175.712 216.233 176.452 216.233 177.179 216.221C177.919 216.233 178.657 216.233 179.371 216.233C247.709 216.233 252.479 142.503 252.479 142.503H101.84ZM177.159 215.991C224.323 212.466 238.161 171.71 242.079 152.458H112.24C116.158 171.71 129.996 212.466 177.159 215.991Z" fill="#C3E5DB"/>
</svg>
